# xmcd
#
# Track frame offsets:
#	150
#	20155
#	38490
#	60807
#	79740
#	96650
#	114600
#	142340
#	156197
#	171515
#	189233
#	202054
#	217589
#	239801
#	261940
#	282724
#	296733
#	310907
#	326565
#	341611
#
# Disc length: 4778 seconds
#
# Revision: 0
# Processed by: cddbd v1.5PL3 Copyright (c) Steve Scherf et al.
# Submitted via: audiograbber 1.83.01
#
DISCID=3c12a814
DTITLE=hi-end - ULTRA HYPER TRANCE CD2
DYEAR=1900
DGENRE=
TTITLE0=GROOVE COVERAGE - The End (Axel Konrad Mix)
TTITLE1=PULSEDRIVER - Galaxy (Megara vs. DJ Lee Rmx)
TTITLE2=VOODOO and SERANO - Overload (Instrumental Mix)
TTITLE3=ANGEL ONE - Hold Me Tonight (DJ Pontos Remix-Edit)
TTITLE4=CANARIAS - Endiess Summer (Club Mix)
TTITLE5=TRACKHACKER - Oops Up! (Barbarez Rmx)
TTITLE6=TRANCENIGHT - TranceNight Anthem 03 (Dave 202 and Phil Green)
TTITLE7=MASSIVE BEATZ - Use A Funny
TTITLE8=NIGHTSLIDERS - Energy
TTITLE9=COSMOSONIC - In My Mind (Master and Servant Rmx)
TTITLE10=RAY CLARKE - Electronic Part 2 (Main Mix)
TTITLE11=NO SEVEN - Reaching The Sky
TTITLE12=ACCUFACE - Is There Life On Mars
TTITLE13=TRINITY - Das Boot 2003 (Extended Club Mix)
TTITLE14=DJ MERLIN and NXP - Deep In My Mind (Original Mix)
TTITLE15=Trance Angel - On The Beach (Megara vs. DJ Lee Edit)
TTITLE16=Future Mind - Drum and Bass
TTITLE17=Nature One Inc. - Rlive and Kickin? (Essential DJ Team Mix)
TTITLE18=MR. 7 - Stop
TTITLE19=Darude - Music
EXTD=
EXTT0=
EXTT1=
EXTT2=
EXTT3=
EXTT4=
EXTT5=
EXTT6=
EXTT7=
EXTT8=
EXTT9=
EXTT10=
EXTT11=
EXTT12=
EXTT13=
EXTT14=
EXTT15=
EXTT16=
EXTT17=
EXTT18=
EXTT19=
PLAYORDER=
